<svg width="46" height="46" viewBox="0 0 46 46" fill="none" xmlns="http://www.w3.org/2000/svg">
<path d="M33.0098 23.7543V35.4475C33.0098 36.0651 32.8061 36.6366 32.4624 37.0966C31.9587 37.7705 31.156 38.2064 30.2509 38.2064H6.6311C5.7249 38.2064 4.92105 37.7705 4.4185 37.0966C4.3817 37.0472 4.34605 36.9966 4.3127 36.9437C4.02379 36.4982 3.87039 35.9785 3.8711 35.4475V11.8276C3.8711 10.3027 5.1062 9.06885 6.6311 9.06885H30.2509C31.2698 9.06885 32.1601 9.62085 32.6372 10.4431L28.8399 14.2414L20.4357 22.6468L14.3142 16.5254C13.2332 15.4444 11.0724 15.4444 9.9937 16.5254L7.4729 19.0451C7.08995 19.428 6.8427 19.9467 6.7323 20.5043C6.5276 21.5198 6.77485 22.6686 7.4729 23.3668L18.2748 34.1687C19.3547 35.2486 21.5144 35.2486 22.5954 34.1687L25.1162 31.6479L33.0098 23.7543Z" fill="#EBEAEA"/>
<path d="M41.3179 15.4443L33.0092 23.7543L25.1156 31.6479L22.5948 34.1687C21.5138 35.2486 19.3541 35.2486 18.2742 34.1687L7.47226 23.3668C6.77421 22.6687 6.52696 21.5197 6.73166 20.5043C6.84206 19.9465 7.08931 19.428 7.47226 19.0451L9.99306 16.5254C11.0718 15.4444 13.2326 15.4444 14.3136 16.5254L20.4351 22.6467L28.8393 14.2414L32.6366 10.4431L34.4766 8.60421C35.5576 7.52321 37.7184 7.52321 38.7971 8.60421L41.3179 11.1239C41.6123 11.4193 41.8274 11.7943 41.9608 12.2059C42.3184 13.303 42.1034 14.6588 41.3179 15.4443Z" fill="#FFA400"/>
</svg>
